<svg width="15" height="15" viewBox="0 0 15 15" fill="none" xmlns="http://www.w3.org/2000/svg">
<path d="M0.703125 5.55798H14.2969V14.2969H0.703125V5.55798Z" fill="#2F47BA"/>
<path d="M7.03125 6.96423H7.96875V7.90174H7.03125V6.96423Z" fill="black"/>
<path d="M10.9688 6.96423H11.9062V7.90174H10.9688V6.96423Z" fill="black"/>
<path d="M3.09375 11.9531H4.03125V12.8906H3.09375V11.9531Z" fill="black"/>
<path d="M7.03125 11.9531H7.96875V12.8906H7.03125V11.9531Z" fill="black"/>
<path d="M3.09375 9.45868H4.03125V10.3962H3.09375V9.45868Z" fill="black"/>
<path d="M7.03125 9.45868H7.96875V10.3962H7.03125V9.45868Z" fill="black"/>
<path d="M10.9688 9.45868H11.9062V10.3962H10.9688V9.45868Z" fill="black"/>
<path d="M14.7656 6.02672V2.17641H12.8906V0.703125H11.9531V2.17641H7.96875V0.703125H7.03125V2.17641H3.98438V3.11391H13.8281V5.08922H1.17188V3.11391H3.04688V0.703125H2.10938V2.17641H0.234375V14.7656H14.7656V6.96422H13.8281V13.8281H1.17188V6.02672H14.7656Z" fill="black"/>
</svg>
