<svg width="15" height="15" viewBox="0 0 15 15" fill="none" xmlns="http://www.w3.org/2000/svg">
<path d="M12.5684 7.05469H2.43141V14.6484H12.5684V7.05469Z" fill="#2F47BA"/>
<path d="M4.21484 9.96094H5.15234V9.02344H4.21484V9.96094Z" fill="black"/>
<path d="M4.21484 13.2422H5.15234V12.3047H4.21484V13.2422Z" fill="black"/>
<path d="M4.21484 3.39844H5.15234V2.46094H4.21484V3.39844Z" fill="black"/>
<path d="M4.21484 6.67969H5.15234V5.74219H4.21484V6.67969Z" fill="black"/>
<path d="M7.03125 9.96094H7.96875V9.02344H7.03125V9.96094Z" fill="black"/>
<path d="M7.03125 13.2422H7.96875V12.3047H7.03125V13.2422Z" fill="black"/>
<path d="M7.03125 6.67969H7.96875V5.74219H7.03125V6.67969Z" fill="black"/>
<path d="M9.84766 9.96094H10.7852V9.02344H9.84766V9.96094Z" fill="black"/>
<path d="M9.84766 13.2422H10.7852V12.3047H9.84766V13.2422Z" fill="black"/>
<path d="M9.84766 3.39844H10.7852V2.46094H9.84766V3.39844Z" fill="black"/>
<path d="M9.84766 6.67969H10.7852V5.74219H9.84766V6.67969Z" fill="black"/>
<path d="M14.2969 15.1172V14.1797H2.90016V1.52344H12.0998V13.2422H13.0373V0.585938H1.96266V14.1797H0.703125V15.1172H14.2969Z" fill="black"/>
</svg>
