<svg width="14" height="12" viewBox="0 0 14 12" fill="none" xmlns="http://www.w3.org/2000/svg">
<path d="M0.65625 11.0312H10.2987C10.2987 9.23573 8.42603 8.0606 6.62944 7.75304C7.00995 7.55197 7.33018 7.25337 7.55733 6.88784C7.78449 6.5223 7.91041 6.10296 7.9222 5.67275C7.93399 5.24254 7.83123 4.81693 7.62444 4.4395C7.41764 4.06207 7.11425 3.74638 6.74532 3.52477C6.3764 3.30316 5.9552 3.18358 5.52486 3.17828C5.09453 3.17299 4.67051 3.28217 4.29625 3.49464C3.92198 3.70711 3.61091 4.01523 3.39489 4.38746C3.17888 4.75969 3.06567 5.18264 3.06687 5.61301C3.06619 6.04967 3.1826 6.47853 3.40398 6.85491C3.62535 7.23129 3.9436 7.54144 4.32556 7.75304C2.51912 8.06235 0.65625 9.24185 0.65625 11.0312Z" fill="#2F47BA"/>
<path d="M11.5076 5.67691C11.2271 5.53825 10.9365 5.42124 10.6383 5.32691C11.0066 4.9146 11.2483 4.40494 11.3347 3.85886C11.421 3.31279 11.3482 2.7534 11.1251 2.24759C10.9019 1.74177 10.5378 1.31092 10.0763 1.00655C9.61475 0.702183 9.07533 0.537173 8.5225 0.53125C7.8776 0.534147 7.25273 0.75561 6.74993 1.15947C6.24714 1.56334 5.89613 2.12574 5.75422 2.75484C5.663 2.74609 5.57091 2.74084 5.4775 2.74084C4.92421 2.74663 4.38432 2.91178 3.92247 3.2165C3.46063 3.52122 3.0964 3.95261 2.8734 4.459C2.65041 4.96539 2.5781 5.52533 2.66514 6.07176C2.75218 6.61819 2.99487 7.12795 3.36416 7.54C1.72244 8.06806 0.21875 9.27206 0.21875 11.0312C0.21875 11.1473 0.264844 11.2586 0.346891 11.3406C0.428938 11.4227 0.540218 11.4688 0.65625 11.4688H10.2987C10.4148 11.4688 10.5261 11.4227 10.6081 11.3406C10.6902 11.2586 10.7362 11.1473 10.7362 11.0312C10.7362 9.27206 9.23256 8.06784 7.59084 7.54C7.89462 7.20034 8.11364 6.79357 8.22996 6.35299C8.34628 5.9124 8.35661 5.45053 8.26009 5.00519C8.16357 4.55984 7.96295 4.14369 7.67465 3.7908C7.38635 3.43791 7.01858 3.15832 6.60144 2.97491C6.70124 2.49591 6.97593 2.07128 7.37191 1.78387C7.76788 1.49646 8.25674 1.36689 8.74308 1.42044C9.22943 1.474 9.67838 1.70683 10.0023 2.07351C10.3263 2.44019 10.502 2.91442 10.4952 3.40366C10.4962 3.76204 10.401 4.11412 10.2195 4.42314C10.038 4.73216 9.77685 4.98679 9.46334 5.16044C9.3839 5.20419 9.32001 5.27155 9.28053 5.35321C9.24104 5.43486 9.22791 5.52677 9.24295 5.61621C9.25799 5.70565 9.30046 5.78821 9.36447 5.85246C9.42849 5.91671 9.51089 5.95948 9.60028 5.97484C10.127 6.06266 10.6381 6.22623 11.118 6.46047C12.0586 6.92969 12.6805 7.6275 12.8555 8.38416H10.5623C10.8004 8.64972 11.0049 8.9436 11.1711 9.25916H13.3438C13.4598 9.25916 13.5711 9.21306 13.6531 9.13102C13.7352 9.04897 13.7812 8.93769 13.7812 8.82166C13.7812 7.56275 12.9318 6.38741 11.5076 5.67691ZM7.45063 5.61303C7.45164 5.97141 7.35643 6.32349 7.17492 6.63252C6.99342 6.94154 6.73228 7.19616 6.41878 7.36981C6.33925 7.41353 6.27528 7.4809 6.23574 7.56258C6.1962 7.64427 6.18304 7.73624 6.19808 7.82573C6.21313 7.91523 6.25563 7.99784 6.31971 8.06211C6.38379 8.12638 6.46626 8.16913 6.55572 8.18444C8.53256 8.52284 9.5725 9.59669 9.80875 10.5938H1.14625C1.3825 9.59669 2.42244 8.52284 4.39928 8.18444C4.48874 8.16913 4.57121 8.12638 4.63529 8.06211C4.69937 7.99784 4.74187 7.91523 4.75692 7.82573C4.77196 7.73624 4.7588 7.64427 4.71926 7.56258C4.67972 7.4809 4.61575 7.41353 4.53622 7.36981C4.22339 7.20592 3.95979 6.96175 3.77247 6.66235C3.58515 6.36296 3.48085 6.01912 3.47028 5.66612C3.4597 5.31311 3.54324 4.96364 3.7123 4.65358C3.88137 4.34351 4.12988 4.084 4.43234 3.90168C4.73481 3.71936 5.08033 3.62078 5.43346 3.61607C5.7866 3.61136 6.13463 3.70069 6.44185 3.87488C6.74906 4.04907 7.00441 4.30186 7.18168 4.60731C7.35896 4.91276 7.45178 5.25987 7.45063 5.61303Z" fill="black"/>
</svg>
