<svg width="10" height="10" viewBox="0 0 10 10" fill="none" xmlns="http://www.w3.org/2000/svg">
<g clip-path="url(#clip0)">
<path d="M10.0002 4.66656V5.33323H5.3418C5.37956 5.11261 5.37956 4.88719 5.3418 4.66656H10.0002Z" fill="black"/>
<path d="M4.36947 4.99998C4.36947 5.52057 3.94743 5.94252 3.42692 5.94252C2.90641 5.94252 2.48438 5.52057 2.48438 4.99998C2.48438 4.47947 2.90641 4.05743 3.42692 4.05743C3.94743 4.05743 4.36947 4.47947 4.36947 4.99998Z" fill="#2F47BA"/>
<path d="M7.80225 0.942546C7.65243 0.386475 7.14811 0 6.57218 0C5.99618 0 5.49186 0.386475 5.34204 0.942546H0V1.60921H5.34204C5.49194 2.16537 5.99626 2.55176 6.57218 2.55176C7.14811 2.55176 7.65243 2.16537 7.80225 1.60921H10V0.942546H7.80225ZM6.5721 1.88509C6.23568 1.88509 5.96289 1.61231 5.96289 1.27588C5.96289 0.939454 6.23568 0.666667 6.5721 0.666667C6.90861 0.666667 7.18132 0.939454 7.18132 1.27588C7.18099 1.61222 6.90845 1.88477 6.5721 1.88509Z" fill="black"/>
<path d="M6.5721 7.44809C5.9965 7.44915 5.49284 7.83513 5.34212 8.39064H0V9.0573H5.34204C5.49186 9.61346 5.99618 9.99985 6.57218 9.99985C7.14811 9.99985 7.65243 9.61346 7.80225 9.0573H10V8.39064H7.80225C7.65145 7.83513 7.14771 7.44915 6.5721 7.44809ZM6.5721 9.3331C6.23568 9.3331 5.96289 9.06039 5.96289 8.72389C5.96289 8.38746 6.23568 8.11468 6.5721 8.11468C6.90853 8.11468 7.18132 8.38746 7.18132 8.72389C7.18107 9.06031 6.90845 9.33294 6.5721 9.33326V9.3331Z" fill="black"/>
<path d="M3.4279 6.27586C4.08919 6.27659 4.64144 5.77187 4.70011 5.11318C4.75879 4.45448 4.30444 3.86008 3.6534 3.74395C3.00236 3.62774 2.37052 4.0283 2.19775 4.66664H0V5.33331H2.19775C2.34847 5.88881 2.85229 6.2748 3.4279 6.27586ZM3.4279 4.39076C3.76432 4.39076 4.03711 4.66355 4.03711 4.99998C4.03711 5.33648 3.76432 5.60919 3.4279 5.60919C3.09147 5.60919 2.81869 5.33648 2.81869 4.99998C2.81901 4.66371 3.09155 4.39109 3.4279 4.39076Z" fill="black"/>
</g>
<defs>
<clipPath id="clip0">
<rect width="10" height="10" fill="white"/>
</clipPath>
</defs>
</svg>
