<svg width="13" height="15" viewBox="0 0 13 15" fill="none" xmlns="http://www.w3.org/2000/svg">
<path d="M9.89844 4.10156C9.89844 2.22466 8.37691 0.703125 6.5 0.703125C4.62309 0.703125 3.10156 2.22466 3.10156 4.10156V6.36727C3.10156 8.24417 4.62309 9.7657 6.5 9.7657C8.37691 9.7657 9.89844 8.24417 9.89844 6.36727V4.10156Z" fill="#2F47BA"/>
<path d="M9.82391 9.82828C9.56525 10.0761 9.27982 10.2943 8.97289 10.4789C9.6827 10.736 10.307 11.1853 10.7762 11.7768C11.2453 12.3682 11.5408 13.0784 11.6295 13.8281H1.37047C1.48666 12.839 1.96166 11.9268 2.70547 11.2644C3.44928 10.6021 4.41021 10.2356 5.40617 10.2345H6.5C7.52528 10.2333 8.50823 9.82546 9.23321 9.10048C9.9582 8.3755 10.366 7.39255 10.3672 6.36727V4.10156C10.3672 3.07592 9.95975 2.09229 9.23452 1.36705C8.50928 0.64181 7.52564 0.234375 6.5 0.234375C5.47436 0.234375 4.49072 0.64181 3.76549 1.36705C3.04025 2.09229 2.63281 3.07592 2.63281 4.10156V6.36727C2.63318 7.21086 2.91106 8.0309 3.42359 8.70094C3.75119 8.58459 4.08845 8.49745 4.43141 8.44055C4.15822 8.16884 3.94149 7.84577 3.79371 7.48994C3.64592 7.13411 3.57 6.75256 3.57031 6.36727V4.10156C3.57031 3.32456 3.87898 2.57938 4.4284 2.02996C4.97782 1.48054 5.723 1.17188 6.5 1.17188C7.277 1.17188 8.02218 1.48054 8.5716 2.02996C9.12103 2.57938 9.42969 3.32456 9.42969 4.10156V6.36727C9.42882 7.144 9.11988 7.88867 8.57064 8.43791C8.02141 8.98714 7.27673 9.29608 6.5 9.29695H5.40617C4.08152 9.30152 2.81242 9.82977 1.87574 10.7664C0.939065 11.7031 0.410821 12.9722 0.40625 14.2969V14.7656H12.5938V14.2969C12.5924 13.3683 12.3325 12.4585 11.8433 11.6693C11.3541 10.8801 10.6549 10.2426 9.82391 9.82828Z" fill="black"/>
</svg>
