<svg width="8" height="10" viewBox="0 0 8 10" fill="none" xmlns="http://www.w3.org/2000/svg">
<path d="M0.318359 0.46875V9.53125H7.66211V0.46875H0.318359ZM3.52695 3.35938H1.58602V1.71875H3.52695V3.35938Z" fill="#2F47BA"/>
<path d="M4.77734 1.40625H6.395V2.03125H4.77734V1.40625Z" fill="black"/>
<path d="M4.77734 3.04688H6.395V3.67188H4.77734V3.04688Z" fill="black"/>
<path d="M1.58594 4.6875H6.39437V5.3125H1.58594V4.6875Z" fill="black"/>
<path d="M1.58594 6.32812H6.39437V6.95312H1.58594V6.32812Z" fill="black"/>
<path d="M1.58594 7.96875H6.39437V8.59375H1.58594V7.96875Z" fill="black"/>
<path d="M7.34266 1.40625V9.21875H0.639531V0.78125H7.96625V0.15625H0.015625V9.84375H7.96625V1.40625H7.34266Z" fill="black"/>
<path d="M1.27344 1.40625V2.42188H1.89844V2.03125H3.21438V3.04688H1.27344V3.67188H3.83938V1.40625H1.27344Z" fill="black"/>
</svg>
