<svg width="12" height="11" viewBox="0 0 12 11" fill="none" xmlns="http://www.w3.org/2000/svg">
<path d="M1.94321 6.68611C2.0229 6.73562 2.1143 6.7593 2.20337 6.7593C2.35571 6.7593 2.50337 6.69256 2.59243 6.56771C3.34946 5.52798 4.61743 4.90802 5.97915 4.90802C7.33852 4.90802 8.6018 5.52583 9.36118 6.56125C9.50649 6.75929 9.79712 6.81096 10.0127 6.6775C10.2284 6.54403 10.2846 6.2771 10.1393 6.07906C9.53462 5.25245 8.66509 4.64325 7.67368 4.31605C8.26899 3.87045 8.64868 3.19022 8.64868 2.43249C8.64868 1.09139 7.4604 0 6.00024 0C4.54009 0 3.3518 1.09139 3.3518 2.43249C3.3518 3.18591 3.7268 3.85969 4.31509 4.30744C3.30727 4.63249 2.42602 5.25029 1.8143 6.08982C1.66899 6.28787 1.72759 6.55479 1.94321 6.68611ZM4.2893 2.43249C4.2893 1.56497 5.05571 0.861057 6.00024 0.861057C6.94477 0.861057 7.71118 1.56497 7.71118 2.43249C7.71118 3.3 6.94477 4.00391 6.00024 4.00391C5.05571 4.00391 4.2893 3.3 4.2893 2.43249Z" fill="#2F47BA"/>
<path d="M7.69451 7.10371H6.82967C6.70076 7.10371 6.58826 7.0585 6.54842 6.94656L6.28123 6.19314C6.2367 6.06829 6.11717 6.00586 5.99998 6.00586C5.88045 6.00586 5.76326 6.06829 5.71873 6.19314L5.45154 6.94656C5.4117 7.0585 5.29685 7.10371 5.17029 7.10371H4.30545C4.01717 7.10371 3.89764 7.46966 4.13201 7.62249L4.83045 8.08531C4.93357 8.1542 4.9781 8.2769 4.93826 8.38883L4.65701 9.13795C4.64529 9.17024 4.6406 9.20469 4.64295 9.23482C4.65232 9.43502 4.92654 9.57279 5.1281 9.43932L5.82654 8.97651C5.8781 8.94206 5.93904 8.92484 5.99998 8.92484C6.06092 8.92484 6.12185 8.94206 6.17342 8.97651L6.87185 9.43932C7.07342 9.57279 7.34764 9.43502 7.35701 9.23482C7.35935 9.20469 7.35467 9.17024 7.34295 9.13795L7.0617 8.38883C7.02185 8.2769 7.06639 8.1542 7.16951 8.08531L7.86795 7.62249C8.10232 7.46966 7.98279 7.10371 7.69451 7.10371Z" fill="#2F47BA"/>
<path d="M11.7023 8.61057H10.8375C10.7086 8.61057 10.5961 8.56537 10.5562 8.45343L10.289 7.70001C10.2445 7.57515 10.125 7.51273 10.0078 7.51273C9.88826 7.51273 9.77107 7.57515 9.72654 7.70001L9.45935 8.45343C9.41951 8.56537 9.30467 8.61057 9.1781 8.61057H8.31326C8.02498 8.61057 7.90545 8.97652 8.13982 9.12936L8.83826 9.59218C8.94139 9.66106 8.98592 9.78376 8.94607 9.8957L8.66482 10.6448C8.6531 10.6771 8.64842 10.7116 8.64842 10.7417C8.65779 10.9419 8.93201 11.0797 9.13357 10.9462L9.83201 10.4834C9.88357 10.4489 9.94451 10.4317 10.0054 10.4317C10.0664 10.4317 10.1273 10.4489 10.1789 10.4834L10.8773 10.9462C11.0789 11.0797 11.3531 10.9419 11.3625 10.7417C11.3648 10.7116 11.3601 10.6771 11.3484 10.6448L11.0672 9.8957C11.0273 9.78376 11.0719 9.66106 11.175 9.59218L11.8734 9.12936C12.1101 8.97652 11.9906 8.61057 11.7023 8.61057Z" fill="black"/>
<path d="M3.6867 8.61057H2.82185C2.69295 8.61057 2.58045 8.56537 2.5406 8.45343L2.27342 7.70001C2.22889 7.57515 2.10935 7.51273 1.99217 7.51273C1.87498 7.51273 1.75545 7.57515 1.71092 7.70001L1.44373 8.45343C1.40389 8.56537 1.28904 8.61057 1.16248 8.61057H0.297635C0.00935425 8.61057 -0.110177 8.97652 0.124198 9.12936L0.822635 9.59218C0.92576 9.66106 0.970292 9.78376 0.930448 9.8957L0.649198 10.6448C0.637479 10.6771 0.632792 10.7116 0.635136 10.7417C0.644511 10.9419 0.918729 11.0797 1.12029 10.9462L1.81873 10.4834C1.87029 10.4489 1.93123 10.4317 1.99217 10.4317C2.0531 10.4317 2.11404 10.4489 2.1656 10.4834L2.86404 10.9462C3.0656 11.0797 3.33982 10.9419 3.3492 10.7417C3.35154 10.7116 3.34685 10.6771 3.33514 10.6448L3.05389 9.8957C3.01404 9.78376 3.05857 9.66106 3.1617 9.59218L3.86014 9.12936C4.09451 8.97652 3.97498 8.61057 3.6867 8.61057Z" fill="black"/>
</svg>
