<svg width="12" height="12" viewBox="0 0 12 12" fill="none" xmlns="http://www.w3.org/2000/svg">
<g clip-path="url(#clip0)">
<path d="M6.00244 3.32169C4.52334 3.32169 3.32422 4.52081 3.32422 5.99991C3.32422 7.47901 4.52324 8.67813 6.00244 8.67813C7.48154 8.67813 8.68066 7.47911 8.68066 6.00001C8.6791 4.52149 7.48096 3.32335 6.00244 3.32169ZM6.00244 6.97403C5.46455 6.97403 5.02842 6.5379 5.02842 6.00001C5.02842 5.46212 5.46455 5.02598 6.00244 5.02598C6.54043 5.02598 6.97646 5.46212 6.97646 6.00001C6.97646 6.5379 6.54043 6.97403 6.00244 6.97403Z" fill="#2F47BA"/>
<path d="M6.00293 7.37384C5.24404 7.37384 4.62891 6.75861 4.62891 5.99982C4.629 5.24093 5.24424 4.62579 6.00303 4.62579C6.76191 4.62589 7.37705 5.24113 7.37695 6.00001C7.37607 6.75841 6.76143 7.37306 6.00293 7.37384ZM6.00293 5.42599C5.68594 5.42599 5.42891 5.68302 5.42891 6.00001C5.42891 6.317 5.68594 6.57404 6.00293 6.57404C6.31992 6.57404 6.57695 6.317 6.57695 6.00001C6.57666 5.68312 6.31982 5.42628 6.00293 5.42599Z" fill="black"/>
<path d="M6.70706 12H5.29787C5.12727 12 4.97541 11.8918 4.91975 11.7306L4.51008 10.5438C3.8843 10.3368 3.30793 10.0032 2.81662 9.56387L1.58098 9.80283C1.4135 9.83535 1.24387 9.75791 1.15862 9.61016L0.454026 8.38984C0.368675 8.24209 0.386448 8.05645 0.498362 7.92764L1.32092 6.97979C1.18625 6.3335 1.18625 5.6665 1.32092 5.02022L0.49846 4.07236C0.386546 3.94355 0.368772 3.75791 0.454124 3.61016L1.15871 2.38984C1.24367 2.2417 1.4136 2.16426 1.58108 2.19717L2.81653 2.43623C3.30774 1.99668 3.8843 1.66299 4.51018 1.45596L4.91975 0.269336C4.97551 0.108105 5.12727 0 5.29787 0H6.70706C6.87766 0 7.02952 0.108203 7.08518 0.269434L7.49475 1.45596C8.12063 1.66299 8.69719 1.99668 9.1885 2.43623L10.424 2.19717C10.5914 2.16436 10.7613 2.2418 10.8463 2.38984L11.5509 3.61016C11.6363 3.75791 11.6185 3.94355 11.5066 4.07236L10.684 5.02022C10.8186 5.6665 10.8186 6.3335 10.684 6.97979L11.5066 7.92764C11.6185 8.05645 11.6363 8.24209 11.5509 8.38984L10.8463 9.61016C10.761 9.75791 10.5914 9.83525 10.424 9.80283L9.18831 9.56377C8.697 10.0032 8.12063 10.3368 7.49485 10.5437L7.08518 11.7305C7.02952 11.8918 6.87766 12 6.70706 12ZM5.58293 11.2H6.422L6.8051 10.0901C6.84797 9.96602 6.94905 9.8709 7.07541 9.83555C7.71897 9.6541 8.30666 9.31387 8.78459 8.84629C8.87825 8.7543 9.01135 8.71436 9.14016 8.73965L10.296 8.96328L10.7156 8.23672L9.94622 7.3502C9.86008 7.25107 9.82815 7.11592 9.86077 6.98867C10.0264 6.34004 10.0264 5.66006 9.86077 5.01143C9.82815 4.88418 9.86008 4.74902 9.94622 4.6498L10.7156 3.76328L10.296 3.03672L9.14045 3.26035C9.01165 3.28525 8.87874 3.24541 8.78489 3.15371C8.30686 2.68604 7.71897 2.3458 7.07532 2.16426C6.94895 2.12891 6.84797 2.03369 6.8051 1.90967L6.422 0.8H5.58293L5.19993 1.90967C5.15705 2.03369 5.05608 2.12891 4.92971 2.16426C4.28606 2.3458 3.69836 2.68604 3.22034 3.15371C3.12659 3.24561 2.99358 3.28555 2.86467 3.26035L1.70891 3.03672L1.28938 3.76328L2.05871 4.6498C2.14485 4.74902 2.17678 4.88418 2.14416 5.01143C1.97854 5.66006 1.97854 6.34004 2.14416 6.98867C2.17678 7.11592 2.14485 7.25107 2.05871 7.3502L1.28938 8.23672L1.70891 8.96328L2.86477 8.73965C2.99368 8.71436 3.12668 8.7543 3.22034 8.84629C3.69827 9.31387 4.28596 9.6541 4.92952 9.83555C5.05598 9.8709 5.15696 9.96602 5.19983 10.0901L5.58293 11.2Z" fill="black"/>
<path d="M6.00205 2.92169C4.61162 2.92413 3.39521 3.85763 3.03301 5.20001H3.87158C4.28877 4.1007 5.47559 3.50128 6.60791 3.81788C7.74023 4.13448 8.44394 5.26261 8.23037 6.41886C8.0168 7.57501 6.95644 8.37726 5.78574 8.26847C4.61504 8.15968 3.7207 7.17579 3.72383 6.00001H2.92383C2.92393 7.70001 4.30205 9.07814 6.00215 9.07814C7.70215 9.07814 9.08027 7.69991 9.08027 5.99991C9.08027 4.29982 7.70215 2.92169 6.00205 2.92169Z" fill="black"/>
</g>
<defs>
<clipPath id="clip0">
<rect width="12" height="12" fill="white"/>
</clipPath>
</defs>
</svg>
